<?xml version="1.0" encoding="utf-8"?>
<!-- Generator: Adobe Illustrator 16.0.0, SVG Export Plug-In . SVG Version: 6.00 Build 0)  -->
<!DOCTYPE svg PUBLIC "-//W3C//DTD SVG 1.1//EN" "http://www.w3.org/Graphics/SVG/1.1/DTD/svg11.dtd">
<svg version="1.1" id="Layer_1" xmlns="http://www.w3.org/2000/svg" xmlns:xlink="http://www.w3.org/1999/xlink" x="0px" y="0px"
	 width="1000px" height="1000px" viewBox="0 0 1000 1000" enable-background="new 0 0 1000 1000" xml:space="preserve">
<g>
	<path fill="#93226C" d="M500,269.461c61.579,0,119.473,23.98,163.016,67.523C706.559,380.527,730.539,438.42,730.539,500
		c0,61.579-23.98,119.473-67.523,163.016S561.579,730.539,500,730.539c-61.579,0-119.472-23.98-163.015-67.523
		C293.442,619.473,269.462,561.578,269.462,500c0-61.579,23.98-119.473,67.523-163.016S438.421,269.461,500,269.461 M500,114.461
		c-212.926,0-385.538,172.611-385.538,385.539S287.074,885.539,500,885.539c212.928,0,385.539-172.612,385.539-385.54
		S712.928,114.461,500,114.461L500,114.461z"/>
</g>
</svg>
